<svg width="15" height="17" viewBox="0 0 15 17" fill="none" xmlns="http://www.w3.org/2000/svg">
<path id="Ellipse 563" d="M7.10126 1.15357L7.10126 1.15358C7.10436 1.1728 7.10756 1.19189 7.11087 1.21086L7.5944 1.12645L7.11088 1.21086C7.25236 2.02135 7.79327 2.52798 8.3665 2.88222C8.65257 3.059 8.9624 3.20783 9.25823 3.34201C9.36279 3.38944 9.46376 3.43426 9.56218 3.47796C9.75262 3.5625 9.93352 3.64281 10.1125 3.72956C12.3545 4.81652 13.9 7.11828 13.9 9.78173C13.9 13.4933 10.8991 16.5 7.2 16.5C3.50089 16.5 0.5 13.4933 0.5 9.78173C0.5 8.95326 0.622001 7.96416 0.868943 7.05883C0.898462 6.95061 0.942331 6.90801 0.967758 6.89019C0.995619 6.87067 1.03927 6.85465 1.10553 6.85902C1.24618 6.86829 1.45097 6.97328 1.57642 7.21264C1.90046 7.83095 2.25026 8.31408 2.5618 8.67695C2.84595 9.00792 3.28143 9.09905 3.64297 8.89916C3.98097 8.71228 4.15184 8.328 4.09999 7.93193C3.85244 6.04064 3.91272 4.66318 4.26176 3.54794C4.60735 2.44376 5.25058 1.55051 6.25576 0.651594C6.39282 0.529016 6.54924 0.517087 6.71542 0.601979C6.89683 0.694653 7.05993 0.897249 7.10126 1.15357Z" stroke="#8D8D8D"/>
</svg>
