<svg width="26" height="26" viewBox="0 0 26 26" fill="none" xmlns="http://www.w3.org/2000/svg">
<g id="Group 10383">
<path id="Rectangle 2877" d="M1 1V22.4C1 23.5046 1.89543 24.4 3 24.4H24.4" stroke="#75B54E" stroke-width="1.5" stroke-linecap="round"/>
<path id="Rectangle 2889" d="M5.8999 12.2C5.07148 12.2 4.3999 12.8715 4.3999 13.7V20.8C4.3999 21.6284 5.07148 22.3 5.8999 22.3H9.0999C9.92833 22.3 10.5999 21.6284 10.5999 20.8V13.7C10.5999 12.8715 9.92833 12.2 9.0999 12.2H5.8999Z" fill="#9BE56E" stroke="#75B54E"/>
<path id="Rectangle 2890" d="M11.5999 7C10.7714 7 10.0999 7.67157 10.0999 8.5V20.8C10.0999 21.6284 10.7714 22.3 11.5999 22.3H14.7999C15.6283 22.3 16.2999 21.6284 16.2999 20.8V8.5C16.2999 7.67157 15.6283 7 14.7999 7H11.5999Z" fill="#9BE56E" stroke="#75B54E"/>
<path id="Rectangle 2891" d="M17.2998 1.80005C16.4714 1.80005 15.7998 2.47162 15.7998 3.30005V20.8C15.7998 21.6285 16.4714 22.3 17.2998 22.3H20.4998C21.3282 22.3 21.9998 21.6285 21.9998 20.8V3.30005C21.9998 2.47162 21.3282 1.80005 20.4998 1.80005H17.2998Z" fill="#9BE56E" stroke="#75B54E"/>
</g>
</svg>
