<svg width="26" height="26" viewBox="0 0 26 26" fill="none" xmlns="http://www.w3.org/2000/svg">
<g id="Group 10383">
<path id="Rectangle 2877" d="M1 1V22.4C1 23.5046 1.89543 24.4 3 24.4H24.4" stroke="#515151" stroke-width="1.5" stroke-linecap="round"/>
<path id="Rectangle 2889" d="M5.8999 12.2002C5.07148 12.2002 4.3999 12.8718 4.3999 13.7002V20.8002C4.3999 21.6286 5.07148 22.3002 5.8999 22.3002H9.0999C9.92833 22.3002 10.5999 21.6286 10.5999 20.8002V13.7002C10.5999 12.8718 9.92833 12.2002 9.0999 12.2002H5.8999Z" stroke="#515151"/>
<path id="Rectangle 2890" d="M11.5999 7C10.7714 7 10.0999 7.67157 10.0999 8.5V20.8C10.0999 21.6284 10.7714 22.3 11.5999 22.3H14.7999C15.6283 22.3 16.2999 21.6284 16.2999 20.8V8.5C16.2999 7.67157 15.6283 7 14.7999 7H11.5999Z" stroke="#515151"/>
<path id="Rectangle 2891" d="M17.2998 1.7998C16.4714 1.7998 15.7998 2.47138 15.7998 3.2998V20.7998C15.7998 21.6282 16.4714 22.2998 17.2998 22.2998H20.4998C21.3282 22.2998 21.9998 21.6282 21.9998 20.7998V3.2998C21.9998 2.47138 21.3282 1.7998 20.4998 1.7998H17.2998Z" stroke="#515151"/>
</g>
</svg>
