<svg width="24" height="24" viewBox="0 0 24 24" fill="none" xmlns="http://www.w3.org/2000/svg">
<g id="akar-icons:eye-open">
<g id="Group">
<path id="Vector" d="M21.6302 10.92C22.1233 11.565 22.1233 12.4357 21.6302 13.0797C20.077 15.1072 16.3507 19.2819 12.0002 19.2819C7.64964 19.2819 3.9233 15.1072 2.37014 13.0797C2.13023 12.7708 2 12.3909 2 11.9998C2 11.6088 2.13023 11.2288 2.37014 10.92C3.9233 8.89248 7.64964 4.71777 12.0002 4.71777C16.3507 4.71777 20.077 8.89248 21.6302 10.92Z" stroke="#8D8D8D" stroke-width="1.6" stroke-linecap="round" stroke-linejoin="round"/>
<path id="Vector_2" d="M14.4968 12.0011C14.4968 13.38 13.379 14.4978 12.0001 14.4978C10.6212 14.4978 9.50342 13.38 9.50342 12.0011C9.50342 10.6222 10.6212 9.50439 12.0001 9.50439C13.379 9.50439 14.4968 10.6222 14.4968 12.0011Z" fill="#8D8D8D" stroke="#8D8D8D" stroke-width="1.4" stroke-linecap="round" stroke-linejoin="round"/>
</g>
</g>
</svg>
