<svg width="24" height="24" viewBox="0 0 24 24" fill="none" xmlns="http://www.w3.org/2000/svg">
<g id="ci:hide">
<path id="Vector" d="M3.44133 2L20.5587 21M16.8143 17.1478C15.3668 18.0134 13.731 18.625 12 18.625C8.22349 18.625 4.90273 15.7133 2.99949 13.6126C2.49667 13.058 2.24526 12.7813 2.08585 12.2362C1.97138 11.8479 1.97138 11.1521 2.08585 10.7638C2.24633 10.2187 2.49774 9.94081 3.00056 9.38625C3.9602 8.327 5.27931 7.0635 6.83484 6.06956M20.0238 14.6279C20.38 14.2799 20.7063 13.9368 20.9994 13.6138L21.0026 13.6102C21.5033 13.0568 21.7547 12.7789 21.9141 12.2374C22.0286 11.8491 22.0286 11.1521 21.9141 10.7638C21.7537 10.2199 21.5033 9.942 21.0005 9.38744C19.0962 7.28675 15.7765 4.375 12 4.375C11.6384 4.375 11.2821 4.40113 10.9302 4.451M13.4154 13.2813C13.001 13.6874 12.4611 13.8998 11.9087 13.8739C11.3564 13.8479 10.8346 13.5857 10.4525 13.1422C10.0705 12.6987 9.85798 12.1082 9.85947 11.4946C9.86095 10.881 10.0763 10.2918 10.4605 9.85056M11.295 12.4403C10.8411 11.7508 11.4543 12.4182 11.8176 12.8381" stroke="#D43D3D" stroke-width="1.8" stroke-linecap="round" stroke-linejoin="round"/>
</g>
</svg>
