<svg width="19" height="20" viewBox="0 0 19 20" fill="none" xmlns="http://www.w3.org/2000/svg">
<g id="Group 10431">
<g id="Group 10441">
<path id="Vector 1261" d="M3.5 7.25703C3.5 7.25703 3.57934 6.62228 3.73803 5.75708M8 7.25703C8 7.25703 7.92676 6.62226 7.78027 5.75708M3.73803 5.75708C4.06723 3.96225 4.73789 1.17572 5.75 1.00703C6.78125 0.835156 7.45801 3.8537 7.78027 5.75708M3.73803 5.75708H7.78027" stroke="#8D8D8D" stroke-linecap="round"/>
<path id="Vector 1262" d="M11 13.5068H14.25M17.75 13.5068H16M11.25 18.7568C14.7333 17.8992 15.8726 16.8185 16 13.5068M16 13.5068H14.25M14.25 13.5068V11.7568M13 16.2568C13.556 17.5973 14.2715 18.2258 17.5 18.7568" stroke="#8D8D8D" stroke-linecap="round"/>
<path id="Vector 1263" d="M1 10.0068C1.05728 14.6207 2.25551 16.2127 8.25 15.7568M8.25 15.7568C7.56658 14.7805 6.5 13.2568 6.5 13.2568M8.25 15.7568C7.56658 16.6355 6.5 18.0068 6.5 18.0068" stroke="#8D8D8D" stroke-linecap="round"/>
<path id="Vector 1264" d="M18.5 10.0068C18.4427 5.39302 17.2445 3.80096 11.25 4.25684M11.25 4.25684C11.9334 5.23315 13 6.75684 13 6.75684M11.25 4.25684C11.9334 3.37816 13 2.00684 13 2.00684" stroke="#8D8D8D" stroke-linecap="round" stroke-linejoin="round"/>
</g>
</g>
</svg>
