<svg width="26" height="25" viewBox="0 0 26 25" fill="none" xmlns="http://www.w3.org/2000/svg">
<g id="Group 10391">
<path id="Rectangle 2804" d="M1 12.8284V22C1 23.1046 1.89543 24 3 24H9.83333C10.1095 24 10.3333 23.7761 10.3333 23.5V16.9211C10.3333 16.6449 10.5572 16.4211 10.8333 16.4211H15.1667C15.4428 16.4211 15.6667 16.6449 15.6667 16.9211V23.5C15.6667 23.7761 15.8905 24 16.1667 24H23C24.1046 24 25 23.1046 25 22V12.8284C25 12.298 24.7893 11.7893 24.4142 11.4142L14.4142 1.41421C13.6332 0.633165 12.3668 0.633165 11.5858 1.41421L1.58579 11.4142C1.21071 11.7893 1 12.298 1 12.8284Z" fill="#9BE56E" stroke="#75B54E" stroke-width="1.5"/>
</g>
</svg>
