<svg width="21" height="18" viewBox="0 0 21 18" fill="none" xmlns="http://www.w3.org/2000/svg">
<g id="ph:barcode-thin" clip-path="url(#clip0_246_14682)">
<path id="Vector" d="M21 0.428571V4.71429C21 4.82795 20.9557 4.93696 20.877 5.01733C20.7982 5.0977 20.6914 5.14286 20.58 5.14286C20.4686 5.14286 20.3618 5.0977 20.283 5.01733C20.2042 4.93696 20.16 4.82795 20.16 4.71429V0.857143H16.38C16.2686 0.857143 16.1618 0.81199 16.083 0.731617C16.0042 0.651244 15.96 0.542236 15.96 0.428571C15.96 0.314907 16.0042 0.205898 16.083 0.125526C16.1618 0.045153 16.2686 0 16.38 0H20.58C20.6914 0 20.7982 0.045153 20.877 0.125526C20.9557 0.205898 21 0.314907 21 0.428571ZM4.62 17.1429H0.84V13.2857C0.84 13.1721 0.79575 13.063 0.716985 12.9827C0.638219 12.9023 0.531391 12.8571 0.42 12.8571C0.308609 12.8571 0.20178 12.9023 0.123015 12.9827C0.04425 13.063 0 13.1721 0 13.2857V17.5714C0 17.6851 0.04425 17.7941 0.123015 17.8745C0.20178 17.9548 0.308609 18 0.42 18H4.62C4.73139 18 4.83822 17.9548 4.91699 17.8745C4.99575 17.7941 5.04 17.6851 5.04 17.5714C5.04 17.4578 4.99575 17.3488 4.91699 17.2684C4.83822 17.188 4.73139 17.1429 4.62 17.1429ZM20.58 12.8571C20.4686 12.8571 20.3618 12.9023 20.283 12.9827C20.2042 13.063 20.16 13.1721 20.16 13.2857V17.1429H16.38C16.2686 17.1429 16.1618 17.188 16.083 17.2684C16.0042 17.3488 15.96 17.4578 15.96 17.5714C15.96 17.6851 16.0042 17.7941 16.083 17.8745C16.1618 17.9548 16.2686 18 16.38 18H20.58C20.6914 18 20.7982 17.9548 20.877 17.8745C20.9557 17.7941 21 17.6851 21 17.5714V13.2857C21 13.1721 20.9557 13.063 20.877 12.9827C20.7982 12.9023 20.6914 12.8571 20.58 12.8571ZM0.42 5.14286C0.531391 5.14286 0.638219 5.0977 0.716985 5.01733C0.79575 4.93696 0.84 4.82795 0.84 4.71429V0.857143H4.62C4.73139 0.857143 4.83822 0.81199 4.91699 0.731617C4.99575 0.651244 5.04 0.542236 5.04 0.428571C5.04 0.314907 4.99575 0.205898 4.91699 0.125526C4.83822 0.045153 4.73139 0 4.62 0H0.42C0.308609 0 0.20178 0.045153 0.123015 0.125526C0.04425 0.205898 0 0.314907 0 0.428571V4.71429C0 4.82795 0.04425 4.93696 0.123015 5.01733C0.20178 5.0977 0.308609 5.14286 0.42 5.14286ZM5.46 4.28571C5.34861 4.28571 5.24178 4.33087 5.16301 4.41124C5.08425 4.49161 5.04 4.60062 5.04 4.71429V13.2857C5.04 13.3994 5.08425 13.5084 5.16301 13.5888C5.24178 13.6691 5.34861 13.7143 5.46 13.7143C5.57139 13.7143 5.67822 13.6691 5.75699 13.5888C5.83575 13.5084 5.88 13.3994 5.88 13.2857V4.71429C5.88 4.60062 5.83575 4.49161 5.75699 4.41124C5.67822 4.33087 5.57139 4.28571 5.46 4.28571ZM15.96 4.71429C15.96 4.60062 15.9157 4.49161 15.837 4.41124C15.7582 4.33087 15.6514 4.28571 15.54 4.28571C15.4286 4.28571 15.3218 4.33087 15.243 4.41124C15.1642 4.49161 15.12 4.60062 15.12 4.71429V13.2857C15.12 13.3994 15.1642 13.5084 15.243 13.5888C15.3218 13.6691 15.4286 13.7143 15.54 13.7143C15.6514 13.7143 15.7582 13.6691 15.837 13.5888C15.9157 13.5084 15.96 13.3994 15.96 13.2857V4.71429ZM12.18 4.28571C12.0686 4.28571 11.9618 4.33087 11.883 4.41124C11.8042 4.49161 11.76 4.60062 11.76 4.71429V13.2857C11.76 13.3994 11.8042 13.5084 11.883 13.5888C11.9618 13.6691 12.0686 13.7143 12.18 13.7143C12.2914 13.7143 12.3982 13.6691 12.477 13.5888C12.5557 13.5084 12.6 13.3994 12.6 13.2857V4.71429C12.6 4.60062 12.5557 4.49161 12.477 4.41124C12.3982 4.33087 12.2914 4.28571 12.18 4.28571ZM8.82 4.28571C8.70861 4.28571 8.60178 4.33087 8.52302 4.41124C8.44425 4.49161 8.4 4.60062 8.4 4.71429V13.2857C8.4 13.3994 8.44425 13.5084 8.52302 13.5888C8.60178 13.6691 8.70861 13.7143 8.82 13.7143C8.93139 13.7143 9.03822 13.6691 9.11699 13.5888C9.19575 13.5084 9.24 13.3994 9.24 13.2857V4.71429C9.24 4.60062 9.19575 4.49161 9.11699 4.41124C9.03822 4.33087 8.93139 4.28571 8.82 4.28571Z" fill="#9C9C9C"/>
</g>
<defs>
<clipPath id="clip0_246_14682">
<rect width="21" height="18" fill="white"/>
</clipPath>
</defs>
</svg>
