<svg width="20" height="19" viewBox="0 0 20 19" fill="none" xmlns="http://www.w3.org/2000/svg">
<g id="Group 10435">
<path id="Rectangle 2877" d="M7.01852 16.9203L6.60838 17.7328C6.37327 18.1985 5.72222 18.0169 5.72222 17.4856V14.4846C5.72222 14.201 5.5108 13.971 5.25 13.971H2.88889C1.84568 13.971 1 13.0513 1 11.9168V3.05424C1 1.91971 1.84568 1 2.88889 1H16.1111C17.1543 1 18 1.91971 18 3.05424V6.13559" stroke="#8D8D8D" stroke-linecap="round"/>
<path id="Rectangle 2878" d="M10 8H17C18.1046 8 19 8.89543 19 10V14.1714C19 15.276 18.1046 16.1714 17 16.1714H16.4444C16.1683 16.1714 15.9444 16.3953 15.9444 16.6714V17.6567C15.9444 18.1199 15.369 18.3341 15.0661 17.9837L13.6496 16.3445C13.5546 16.2346 13.4165 16.1714 13.2713 16.1714H10C8.89543 16.1714 8 15.276 8 14.1714V10C8 8.89543 8.89543 8 10 8Z" stroke="#8D8D8D"/>
</g>
</svg>
